<svg width="128" height="128" viewBox="0 0 128 128" fill="none" xmlns="http://www.w3.org/2000/svg">
<g clip-path="url(#clip0_27_18)">
<rect width="128" height="128" fill="#0198FF"/>
<path d="M54.25 57.8H64C74.8 57.8 80.2 53.1 80.2 43.7C80.2 34.3 74.8 29.6 64 29.6H54.25V57.8ZM54.25 119H24.85V5.9H71.65C84.35 5.9 94.05 9.2 100.75 15.8C107.55 22.4 110.95 31.7 110.95 43.7C110.95 55.7 107.55 65 100.75 71.6C94.05 78.2 84.35 81.5 71.65 81.5H54.25V119Z" fill="white"/>
<path d="M65.3078 107.4C65.3078 105.8 65.6078 104.3 66.2078 102.9C66.8078 101.433 67.6411 100.167 68.7078 99.1C69.7745 98.0333 71.0078 97.2 72.4078 96.6C73.8745 96 75.4078 95.7 77.0078 95.7C78.6078 95.7 80.1078 96 81.5078 96.6C82.9745 97.2 84.2411 98.0333 85.3078 99.1C86.3745 100.167 87.2078 101.433 87.8078 102.9C88.4078 104.3 88.7078 105.8 88.7078 107.4C88.7078 109 88.4078 110.533 87.8078 112C87.2078 113.4 86.3745 114.633 85.3078 115.7C84.2411 116.767 82.9745 117.6 81.5078 118.2C80.1078 118.8 78.6078 119.1 77.0078 119.1C75.4078 119.1 73.8745 118.8 72.4078 118.2C71.0078 117.6 69.7745 116.767 68.7078 115.7C67.6411 114.633 66.8078 113.4 66.2078 112C65.6078 110.533 65.3078 109 65.3078 107.4Z" fill="white"/>
</g>
<defs>
<clipPath id="clip0_27_18">
<rect width="128" height="128" fill="white"/>
</clipPath>
</defs>
</svg>
