<svg width="320" height="320" viewBox="0 0 320 320" fill="none" xmlns="http://www.w3.org/2000/svg">
<path d="M71.5 144.52H75.4C79.72 144.52 81.88 142.64 81.88 138.88C81.88 135.12 79.72 133.24 75.4 133.24H71.5V144.52ZM71.5 169H59.74V123.76H78.46C83.54 123.76 87.42 125.08 90.1 127.72C92.82 130.36 94.18 134.08 94.18 138.88C94.18 143.68 92.82 147.4 90.1 150.04C87.42 152.68 83.54 154 78.46 154H71.5V169ZM113.485 152.2L108.205 137.14L102.925 152.2H113.485ZM116.605 161.14H99.8045L97.1045 169H84.5645L101.785 123.76H114.625L131.845 169H119.305L116.605 161.14ZM139.75 143.98H141.97C144.29 143.98 146.07 143.5 147.31 142.54C148.55 141.58 149.17 140.2 149.17 138.4C149.17 136.6 148.55 135.22 147.31 134.26C146.07 133.3 144.29 132.82 141.97 132.82H139.75V143.98ZM165.61 169H150.97L139.75 151.6V169H127.99V123.76H146.29C148.81 123.76 151.01 124.14 152.89 124.9C154.77 125.62 156.31 126.62 157.51 127.9C158.75 129.18 159.67 130.66 160.27 132.34C160.91 134.02 161.23 135.82 161.23 137.74C161.23 141.18 160.39 143.98 158.71 146.14C157.07 148.26 154.63 149.7 151.39 150.46L165.61 169ZM173.289 142.42L187.629 123.76H202.149L184.209 145.18L203.829 169H188.589L173.289 149.38V169H161.529V123.76H173.289V142.42ZM225.789 133.72H211.809V141.28H225.009V151.24H211.809V159.04H225.789V169H200.049V123.76H225.789V133.72ZM237.027 143.98H239.247C241.567 143.98 243.347 143.5 244.587 142.54C245.827 141.58 246.447 140.2 246.447 138.4C246.447 136.6 245.827 135.22 244.587 134.26C243.347 133.3 241.567 132.82 239.247 132.82H237.027V143.98ZM262.887 169H248.247L237.027 151.6V169H225.267V123.76H243.567C246.087 123.76 248.287 124.14 250.167 124.9C252.047 125.62 253.587 126.62 254.787 127.9C256.027 129.18 256.947 130.66 257.547 132.34C258.187 134.02 258.507 135.82 258.507 137.74C258.507 141.18 257.667 143.98 255.987 146.14C254.347 148.26 251.907 149.7 248.667 150.46L262.887 169Z" fill="white"/>
<path d="M55 175L281 176" stroke="white" stroke-width="8" stroke-linecap="round"/>
<path d="M267.18 163.24C267.18 162.28 267.36 161.38 267.72 160.54C268.08 159.66 268.58 158.9 269.22 158.26C269.86 157.62 270.6 157.12 271.44 156.76C272.32 156.4 273.24 156.22 274.2 156.22C275.16 156.22 276.06 156.4 276.9 156.76C277.78 157.12 278.54 157.62 279.18 158.26C279.82 158.9 280.32 159.66 280.68 160.54C281.04 161.38 281.22 162.28 281.22 163.24C281.22 164.2 281.04 165.12 280.68 166C280.32 166.84 279.82 167.58 279.18 168.22C278.54 168.86 277.78 169.36 276.9 169.72C276.06 170.08 275.16 170.26 274.2 170.26C273.24 170.26 272.32 170.08 271.44 169.72C270.6 169.36 269.86 168.86 269.22 168.22C268.58 167.58 268.08 166.84 267.72 166C267.36 165.12 267.18 164.2 267.18 163.24Z" fill="#0198FF"/>
</svg>
