<svg width="234" height="64" viewBox="0 0 234 64" fill="none" xmlns="http://www.w3.org/2000/svg">
<path d="M20.5 28.52H24.4C28.72 28.52 30.88 26.64 30.88 22.88C30.88 19.12 28.72 17.24 24.4 17.24H20.5V28.52ZM20.5 53H8.74V7.76H27.46C32.54 7.76 36.42 9.08 39.1 11.72C41.82 14.36 43.18 18.08 43.18 22.88C43.18 27.68 41.82 31.4 39.1 34.04C36.42 36.68 32.54 38 27.46 38H20.5V53ZM62.4845 36.2L57.2045 21.14L51.9245 36.2H62.4845ZM65.6045 45.14H48.8045L46.1045 53H33.5645L50.7845 7.76H63.6245L80.8445 53H68.3045L65.6045 45.14ZM88.75 27.98H90.97C93.29 27.98 95.07 27.5 96.31 26.54C97.55 25.58 98.17 24.2 98.17 22.4C98.17 20.6 97.55 19.22 96.31 18.26C95.07 17.3 93.29 16.82 90.97 16.82H88.75V27.98ZM114.61 53H99.97L88.75 35.6V53H76.99V7.76H95.29C97.81 7.76 100.01 8.14 101.89 8.9C103.77 9.62 105.31 10.62 106.51 11.9C107.75 13.18 108.67 14.66 109.27 16.34C109.91 18.02 110.23 19.82 110.23 21.74C110.23 25.18 109.39 27.98 107.71 30.14C106.07 32.26 103.63 33.7 100.39 34.46L114.61 53ZM122.289 26.42L136.629 7.76H151.149L133.209 29.18L152.829 53H137.589L122.289 33.38V53H110.529V7.76H122.289V26.42ZM174.789 17.72H160.809V25.28H174.009V35.24H160.809V43.04H174.789V53H149.049V7.76H174.789V17.72ZM186.027 27.98H188.247C190.567 27.98 192.347 27.5 193.587 26.54C194.827 25.58 195.447 24.2 195.447 22.4C195.447 20.6 194.827 19.22 193.587 18.26C192.347 17.3 190.567 16.82 188.247 16.82H186.027V27.98ZM211.887 53H197.247L186.027 35.6V53H174.267V7.76H192.567C195.087 7.76 197.287 8.14 199.167 8.9C201.047 9.62 202.587 10.62 203.787 11.9C205.027 13.18 205.947 14.66 206.547 16.34C207.187 18.02 207.507 19.82 207.507 21.74C207.507 25.18 206.667 27.98 204.987 30.14C203.347 32.26 200.907 33.7 197.667 34.46L211.887 53Z" fill="black"/>
<path d="M4 59L230 60" stroke="black" stroke-width="8" stroke-linecap="round"/>
<path d="M216.18 47.24C216.18 46.28 216.36 45.38 216.72 44.54C217.08 43.66 217.58 42.9 218.22 42.26C218.86 41.62 219.6 41.12 220.44 40.76C221.32 40.4 222.24 40.22 223.2 40.22C224.16 40.22 225.06 40.4 225.9 40.76C226.78 41.12 227.54 41.62 228.18 42.26C228.82 42.9 229.32 43.66 229.68 44.54C230.04 45.38 230.22 46.28 230.22 47.24C230.22 48.2 230.04 49.12 229.68 50C229.32 50.84 228.82 51.58 228.18 52.22C227.54 52.86 226.78 53.36 225.9 53.72C225.06 54.08 224.16 54.26 223.2 54.26C222.24 54.26 221.32 54.08 220.44 53.72C219.6 53.36 218.86 52.86 218.22 52.22C217.58 51.58 217.08 50.84 216.72 50C216.36 49.12 216.18 48.2 216.18 47.24Z" fill="black"/>
</svg>
